<mxfile host="app.diagrams.net" agent="Mozilla/5.0 (Macintosh; Intel Mac OS X 10_15_7) AppleWebKit/537.36 (KHTML, like Gecko) Chrome/131.0.0.0 Safari/537.36" version="26.0.8">
  <diagram name="Page-1" id="_lZWDnlzz12lldunb9Sg">
    <mxGraphModel dx="1717" dy="1111" grid="1" gridSize="10" guides="1" tooltips="1" connect="1" arrows="1" fold="1" page="1" pageScale="1" pageWidth="1654" pageHeight="500" background="#FFFFFF" math="0" shadow="0">
      <root>
        <mxCell id="0" />
        <mxCell id="1" parent="0" />
        <mxCell id="IL2ZAVDEKWoscdO1TFzV-2" value="David&lt;br&gt;(CEO)" style="rounded=0;whiteSpace=wrap;html=1;fillColor=light-dark(#CCFFFF,var(--ge-dark-color, #121212));" vertex="1" parent="1">
          <mxGeometry x="780" y="80" width="120" height="60" as="geometry" />
        </mxCell>
        <mxCell id="IL2ZAVDEKWoscdO1TFzV-4" value="Sara&lt;br&gt;(Segmented Revenue)" style="rounded=0;whiteSpace=wrap;html=1;fillColor=light-dark(#CCFFFF,var(--ge-dark-color, #121212));" vertex="1" parent="1">
          <mxGeometry x="1410" y="240" width="140" height="60" as="geometry" />
        </mxCell>
        <mxCell id="IL2ZAVDEKWoscdO1TFzV-5" value="Peter&lt;br&gt;(Prices)" style="rounded=0;whiteSpace=wrap;html=1;fillColor=light-dark(#CCFFFF,var(--ge-dark-color, #121212));" vertex="1" parent="1">
          <mxGeometry x="1250" y="240" width="120" height="60" as="geometry" />
        </mxCell>
        <mxCell id="IL2ZAVDEKWoscdO1TFzV-6" value="Natasha&lt;br&gt;(News)" style="rounded=0;whiteSpace=wrap;html=1;fillColor=light-dark(#CCFFFF,var(--ge-dark-color, #121212));" vertex="1" parent="1">
          <mxGeometry x="1100" y="240" width="120" height="60" as="geometry" />
        </mxCell>
        <mxCell id="IL2ZAVDEKWoscdO1TFzV-8" value="Melissa&lt;br&gt;(Metrics)" style="rounded=0;whiteSpace=wrap;html=1;fillColor=light-dark(#CCFFFF,var(--ge-dark-color, #121212));" vertex="1" parent="1">
          <mxGeometry x="940" y="240" width="120" height="60" as="geometry" />
        </mxCell>
        <mxCell id="IL2ZAVDEKWoscdO1TFzV-9" value="Michael&lt;br&gt;(Inside Trading)" style="rounded=0;whiteSpace=wrap;html=1;fillColor=light-dark(#CCFFFF,var(--ge-dark-color, #121212));" vertex="1" parent="1">
          <mxGeometry x="780" y="240" width="120" height="60" as="geometry" />
        </mxCell>
        <mxCell id="IL2ZAVDEKWoscdO1TFzV-10" value="Tony&lt;br&gt;(Cash Flow Statements)" style="rounded=0;whiteSpace=wrap;html=1;fillColor=light-dark(#CCFFFF,var(--ge-dark-color, #121212));" vertex="1" parent="1">
          <mxGeometry x="600" y="240" width="140" height="60" as="geometry" />
        </mxCell>
        <mxCell id="IL2ZAVDEKWoscdO1TFzV-11" value="Sarah&lt;br&gt;(Company Facts)" style="rounded=0;whiteSpace=wrap;html=1;fillColor=light-dark(#CCFFFF,var(--ge-dark-color, #121212));" vertex="1" parent="1">
          <mxGeometry x="110" y="240" width="120" height="60" as="geometry" />
        </mxCell>
        <mxCell id="IL2ZAVDEKWoscdO1TFzV-12" value="Alice&lt;br&gt;(Balance Sheets)" style="rounded=0;whiteSpace=wrap;html=1;fillColor=light-dark(#CCFFFF,var(--ge-dark-color, #121212));" vertex="1" parent="1">
          <mxGeometry x="440" y="240" width="120" height="60" as="geometry" />
        </mxCell>
        <mxCell id="IL2ZAVDEKWoscdO1TFzV-13" value="John&lt;br&gt;(Income Statements)" style="rounded=0;whiteSpace=wrap;html=1;fillColor=light-dark(#CCFFFF,var(--ge-dark-color, #121212));" vertex="1" parent="1">
          <mxGeometry x="270" y="240" width="130" height="60" as="geometry" />
        </mxCell>
        <mxCell id="IL2ZAVDEKWoscdO1TFzV-14" value="" style="endArrow=classic;startArrow=classic;html=1;rounded=0;entryX=0.5;entryY=1;entryDx=0;entryDy=0;exitX=0.5;exitY=0;exitDx=0;exitDy=0;fillColor=light-dark(#CCFFFF,var(--ge-dark-color, #121212));" edge="1" parent="1" source="IL2ZAVDEKWoscdO1TFzV-11" target="IL2ZAVDEKWoscdO1TFzV-2">
          <mxGeometry width="50" height="50" relative="1" as="geometry">
            <mxPoint x="750" y="350" as="sourcePoint" />
            <mxPoint x="800" y="300" as="targetPoint" />
          </mxGeometry>
        </mxCell>
        <mxCell id="IL2ZAVDEKWoscdO1TFzV-15" value="" style="endArrow=classic;startArrow=classic;html=1;rounded=0;entryX=0.5;entryY=1;entryDx=0;entryDy=0;exitX=0.5;exitY=0;exitDx=0;exitDy=0;fillColor=light-dark(#CCFFFF,var(--ge-dark-color, #121212));" edge="1" parent="1" source="IL2ZAVDEKWoscdO1TFzV-13" target="IL2ZAVDEKWoscdO1TFzV-2">
          <mxGeometry width="50" height="50" relative="1" as="geometry">
            <mxPoint x="750" y="350" as="sourcePoint" />
            <mxPoint x="800" y="300" as="targetPoint" />
          </mxGeometry>
        </mxCell>
        <mxCell id="IL2ZAVDEKWoscdO1TFzV-16" value="" style="endArrow=classic;startArrow=classic;html=1;rounded=0;entryX=0.5;entryY=1;entryDx=0;entryDy=0;exitX=0.5;exitY=0;exitDx=0;exitDy=0;fillColor=light-dark(#CCFFFF,var(--ge-dark-color, #121212));" edge="1" parent="1" source="IL2ZAVDEKWoscdO1TFzV-12" target="IL2ZAVDEKWoscdO1TFzV-2">
          <mxGeometry width="50" height="50" relative="1" as="geometry">
            <mxPoint x="750" y="350" as="sourcePoint" />
            <mxPoint x="800" y="300" as="targetPoint" />
          </mxGeometry>
        </mxCell>
        <mxCell id="IL2ZAVDEKWoscdO1TFzV-17" value="" style="endArrow=classic;startArrow=classic;html=1;rounded=0;entryX=0.5;entryY=1;entryDx=0;entryDy=0;exitX=0.5;exitY=0;exitDx=0;exitDy=0;fillColor=light-dark(#CCFFFF,var(--ge-dark-color, #121212));" edge="1" parent="1" source="IL2ZAVDEKWoscdO1TFzV-10" target="IL2ZAVDEKWoscdO1TFzV-2">
          <mxGeometry width="50" height="50" relative="1" as="geometry">
            <mxPoint x="750" y="350" as="sourcePoint" />
            <mxPoint x="800" y="300" as="targetPoint" />
          </mxGeometry>
        </mxCell>
        <mxCell id="IL2ZAVDEKWoscdO1TFzV-18" value="" style="endArrow=classic;startArrow=classic;html=1;rounded=0;entryX=0.5;entryY=1;entryDx=0;entryDy=0;exitX=0.5;exitY=0;exitDx=0;exitDy=0;fillColor=light-dark(#CCFFFF,var(--ge-dark-color, #121212));" edge="1" parent="1" source="IL2ZAVDEKWoscdO1TFzV-9" target="IL2ZAVDEKWoscdO1TFzV-2">
          <mxGeometry width="50" height="50" relative="1" as="geometry">
            <mxPoint x="750" y="350" as="sourcePoint" />
            <mxPoint x="800" y="300" as="targetPoint" />
          </mxGeometry>
        </mxCell>
        <mxCell id="IL2ZAVDEKWoscdO1TFzV-19" value="" style="endArrow=classic;startArrow=classic;html=1;rounded=0;entryX=0.5;entryY=1;entryDx=0;entryDy=0;exitX=0.5;exitY=0;exitDx=0;exitDy=0;fillColor=light-dark(#CCFFFF,var(--ge-dark-color, #121212));" edge="1" parent="1" source="IL2ZAVDEKWoscdO1TFzV-8" target="IL2ZAVDEKWoscdO1TFzV-2">
          <mxGeometry width="50" height="50" relative="1" as="geometry">
            <mxPoint x="750" y="350" as="sourcePoint" />
            <mxPoint x="800" y="300" as="targetPoint" />
          </mxGeometry>
        </mxCell>
        <mxCell id="IL2ZAVDEKWoscdO1TFzV-20" value="" style="endArrow=classic;startArrow=classic;html=1;rounded=0;exitX=0.5;exitY=0;exitDx=0;exitDy=0;fillColor=light-dark(#CCFFFF,var(--ge-dark-color, #121212));" edge="1" parent="1" source="IL2ZAVDEKWoscdO1TFzV-6">
          <mxGeometry width="50" height="50" relative="1" as="geometry">
            <mxPoint x="750" y="350" as="sourcePoint" />
            <mxPoint x="840" y="140" as="targetPoint" />
          </mxGeometry>
        </mxCell>
        <mxCell id="IL2ZAVDEKWoscdO1TFzV-21" value="" style="endArrow=classic;startArrow=classic;html=1;rounded=0;entryX=0.5;entryY=1;entryDx=0;entryDy=0;exitX=0.5;exitY=0;exitDx=0;exitDy=0;fillColor=light-dark(#CCFFFF,var(--ge-dark-color, #121212));" edge="1" parent="1" source="IL2ZAVDEKWoscdO1TFzV-5" target="IL2ZAVDEKWoscdO1TFzV-2">
          <mxGeometry width="50" height="50" relative="1" as="geometry">
            <mxPoint x="750" y="350" as="sourcePoint" />
            <mxPoint x="800" y="300" as="targetPoint" />
          </mxGeometry>
        </mxCell>
        <mxCell id="IL2ZAVDEKWoscdO1TFzV-22" value="" style="endArrow=classic;startArrow=classic;html=1;rounded=0;entryX=0.5;entryY=1;entryDx=0;entryDy=0;exitX=0.5;exitY=0;exitDx=0;exitDy=0;fillColor=light-dark(#CCFFFF,var(--ge-dark-color, #121212));" edge="1" parent="1" source="IL2ZAVDEKWoscdO1TFzV-4" target="IL2ZAVDEKWoscdO1TFzV-2">
          <mxGeometry width="50" height="50" relative="1" as="geometry">
            <mxPoint x="750" y="350" as="sourcePoint" />
            <mxPoint x="800" y="300" as="targetPoint" />
          </mxGeometry>
        </mxCell>
        <mxCell id="IL2ZAVDEKWoscdO1TFzV-23" value="Company Facts&lt;br&gt;API" style="ellipse;shape=cloud;whiteSpace=wrap;html=1;fillColor=light-dark(#CCFFFF,var(--ge-dark-color, #121212));" vertex="1" parent="1">
          <mxGeometry x="105" y="350" width="130" height="80" as="geometry" />
        </mxCell>
        <mxCell id="IL2ZAVDEKWoscdO1TFzV-24" value="Income Statements&lt;br&gt;API" style="ellipse;shape=cloud;whiteSpace=wrap;html=1;fillColor=light-dark(#CCFFFF,var(--ge-dark-color, #121212));" vertex="1" parent="1">
          <mxGeometry x="265" y="343.85" width="140" height="86.15" as="geometry" />
        </mxCell>
        <mxCell id="IL2ZAVDEKWoscdO1TFzV-25" value="Balance Sheets&lt;br&gt;API" style="ellipse;shape=cloud;whiteSpace=wrap;html=1;fillColor=light-dark(#CCFFFF,var(--ge-dark-color, #121212));" vertex="1" parent="1">
          <mxGeometry x="430" y="343.85" width="140" height="86.15" as="geometry" />
        </mxCell>
        <mxCell id="IL2ZAVDEKWoscdO1TFzV-26" value="Cash Flow&lt;br&gt;API" style="ellipse;shape=cloud;whiteSpace=wrap;html=1;fillColor=light-dark(#CCFFFF,var(--ge-dark-color, #121212));" vertex="1" parent="1">
          <mxGeometry x="600" y="343.85" width="140" height="86.15" as="geometry" />
        </mxCell>
        <mxCell id="IL2ZAVDEKWoscdO1TFzV-27" value="Inside Trading&lt;br&gt;API" style="ellipse;shape=cloud;whiteSpace=wrap;html=1;fillColor=light-dark(#CCFFFF,var(--ge-dark-color, #121212));" vertex="1" parent="1">
          <mxGeometry x="770" y="350" width="140" height="86.15" as="geometry" />
        </mxCell>
        <mxCell id="IL2ZAVDEKWoscdO1TFzV-28" value="Metrics&lt;br&gt;API" style="ellipse;shape=cloud;whiteSpace=wrap;html=1;fillColor=light-dark(#CCFFFF,var(--ge-dark-color, #121212));" vertex="1" parent="1">
          <mxGeometry x="930" y="346.93" width="140" height="86.15" as="geometry" />
        </mxCell>
        <mxCell id="IL2ZAVDEKWoscdO1TFzV-29" value="News&lt;br&gt;API" style="ellipse;shape=cloud;whiteSpace=wrap;html=1;fillColor=light-dark(#CCFFFF,var(--ge-dark-color, #121212));" vertex="1" parent="1">
          <mxGeometry x="1090" y="343.85" width="140" height="86.15" as="geometry" />
        </mxCell>
        <mxCell id="IL2ZAVDEKWoscdO1TFzV-30" value="Prices&lt;br&gt;API" style="ellipse;shape=cloud;whiteSpace=wrap;html=1;fillColor=light-dark(#CCFFFF,var(--ge-dark-color, #121212));" vertex="1" parent="1">
          <mxGeometry x="1240" y="343.85" width="140" height="86.15" as="geometry" />
        </mxCell>
        <mxCell id="IL2ZAVDEKWoscdO1TFzV-31" value="Segmented Revenue&lt;br&gt;API" style="ellipse;shape=cloud;whiteSpace=wrap;html=1;fillColor=light-dark(#CCFFFF,var(--ge-dark-color, #121212));" vertex="1" parent="1">
          <mxGeometry x="1405" y="343.85" width="150" height="86.15" as="geometry" />
        </mxCell>
        <mxCell id="IL2ZAVDEKWoscdO1TFzV-32" value="" style="endArrow=classic;startArrow=classic;html=1;rounded=0;entryX=0.5;entryY=1;entryDx=0;entryDy=0;exitX=0.4;exitY=0.1;exitDx=0;exitDy=0;exitPerimeter=0;fillColor=light-dark(#CCFFFF,var(--ge-dark-color, #121212));" edge="1" parent="1" source="IL2ZAVDEKWoscdO1TFzV-25" target="IL2ZAVDEKWoscdO1TFzV-12">
          <mxGeometry width="50" height="50" relative="1" as="geometry">
            <mxPoint x="810" y="380" as="sourcePoint" />
            <mxPoint x="860" y="330" as="targetPoint" />
          </mxGeometry>
        </mxCell>
        <mxCell id="IL2ZAVDEKWoscdO1TFzV-34" value="" style="endArrow=classic;startArrow=classic;html=1;rounded=0;entryX=0.5;entryY=1;entryDx=0;entryDy=0;exitX=0.474;exitY=0.088;exitDx=0;exitDy=0;exitPerimeter=0;fillColor=light-dark(#CCFFFF,var(--ge-dark-color, #121212));" edge="1" parent="1" source="IL2ZAVDEKWoscdO1TFzV-24" target="IL2ZAVDEKWoscdO1TFzV-13">
          <mxGeometry width="50" height="50" relative="1" as="geometry">
            <mxPoint x="770" y="380" as="sourcePoint" />
            <mxPoint x="820" y="330" as="targetPoint" />
          </mxGeometry>
        </mxCell>
        <mxCell id="IL2ZAVDEKWoscdO1TFzV-36" value="" style="endArrow=classic;startArrow=classic;html=1;rounded=0;entryX=0.5;entryY=1;entryDx=0;entryDy=0;exitX=0.4;exitY=0.1;exitDx=0;exitDy=0;exitPerimeter=0;fillColor=light-dark(#CCFFFF,var(--ge-dark-color, #121212));" edge="1" parent="1" source="IL2ZAVDEKWoscdO1TFzV-23" target="IL2ZAVDEKWoscdO1TFzV-11">
          <mxGeometry width="50" height="50" relative="1" as="geometry">
            <mxPoint x="770" y="380" as="sourcePoint" />
            <mxPoint x="820" y="330" as="targetPoint" />
          </mxGeometry>
        </mxCell>
        <mxCell id="IL2ZAVDEKWoscdO1TFzV-37" value="" style="endArrow=classic;startArrow=classic;html=1;rounded=0;entryX=0.5;entryY=1;entryDx=0;entryDy=0;exitX=0.4;exitY=0.1;exitDx=0;exitDy=0;exitPerimeter=0;fillColor=light-dark(#CCFFFF,var(--ge-dark-color, #121212));" edge="1" parent="1" source="IL2ZAVDEKWoscdO1TFzV-26" target="IL2ZAVDEKWoscdO1TFzV-10">
          <mxGeometry width="50" height="50" relative="1" as="geometry">
            <mxPoint x="770" y="380" as="sourcePoint" />
            <mxPoint x="820" y="330" as="targetPoint" />
          </mxGeometry>
        </mxCell>
        <mxCell id="IL2ZAVDEKWoscdO1TFzV-38" value="" style="endArrow=classic;startArrow=classic;html=1;rounded=0;entryX=0.5;entryY=1;entryDx=0;entryDy=0;exitX=0.4;exitY=0.1;exitDx=0;exitDy=0;exitPerimeter=0;fillColor=light-dark(#CCFFFF,var(--ge-dark-color, #121212));" edge="1" parent="1" source="IL2ZAVDEKWoscdO1TFzV-27" target="IL2ZAVDEKWoscdO1TFzV-9">
          <mxGeometry width="50" height="50" relative="1" as="geometry">
            <mxPoint x="770" y="380" as="sourcePoint" />
            <mxPoint x="820" y="330" as="targetPoint" />
          </mxGeometry>
        </mxCell>
        <mxCell id="IL2ZAVDEKWoscdO1TFzV-43" value="" style="endArrow=classic;startArrow=classic;html=1;rounded=0;entryX=0.5;entryY=1;entryDx=0;entryDy=0;exitX=0.4;exitY=0.1;exitDx=0;exitDy=0;exitPerimeter=0;fillColor=light-dark(#CCFFFF,var(--ge-dark-color, #121212));" edge="1" parent="1" source="IL2ZAVDEKWoscdO1TFzV-28" target="IL2ZAVDEKWoscdO1TFzV-8">
          <mxGeometry width="50" height="50" relative="1" as="geometry">
            <mxPoint x="770" y="380" as="sourcePoint" />
            <mxPoint x="820" y="330" as="targetPoint" />
          </mxGeometry>
        </mxCell>
        <mxCell id="IL2ZAVDEKWoscdO1TFzV-44" value="" style="endArrow=classic;startArrow=classic;html=1;rounded=0;entryX=0.5;entryY=1;entryDx=0;entryDy=0;exitX=0.4;exitY=0.1;exitDx=0;exitDy=0;exitPerimeter=0;fillColor=light-dark(#CCFFFF,var(--ge-dark-color, #121212));" edge="1" parent="1" source="IL2ZAVDEKWoscdO1TFzV-29" target="IL2ZAVDEKWoscdO1TFzV-6">
          <mxGeometry width="50" height="50" relative="1" as="geometry">
            <mxPoint x="770" y="380" as="sourcePoint" />
            <mxPoint x="820" y="330" as="targetPoint" />
          </mxGeometry>
        </mxCell>
        <mxCell id="IL2ZAVDEKWoscdO1TFzV-45" value="" style="endArrow=classic;startArrow=classic;html=1;rounded=0;entryX=0.5;entryY=1;entryDx=0;entryDy=0;exitX=0.4;exitY=0.1;exitDx=0;exitDy=0;exitPerimeter=0;fillColor=light-dark(#CCFFFF,var(--ge-dark-color, #121212));" edge="1" parent="1" source="IL2ZAVDEKWoscdO1TFzV-30" target="IL2ZAVDEKWoscdO1TFzV-5">
          <mxGeometry width="50" height="50" relative="1" as="geometry">
            <mxPoint x="1190" y="380" as="sourcePoint" />
            <mxPoint x="1240" y="330" as="targetPoint" />
          </mxGeometry>
        </mxCell>
        <mxCell id="IL2ZAVDEKWoscdO1TFzV-46" value="" style="endArrow=classic;startArrow=classic;html=1;rounded=0;entryX=0.5;entryY=1;entryDx=0;entryDy=0;exitX=0.4;exitY=0.1;exitDx=0;exitDy=0;exitPerimeter=0;fillColor=light-dark(#CCFFFF,var(--ge-dark-color, #121212));" edge="1" parent="1" source="IL2ZAVDEKWoscdO1TFzV-31" target="IL2ZAVDEKWoscdO1TFzV-4">
          <mxGeometry width="50" height="50" relative="1" as="geometry">
            <mxPoint x="1190" y="380" as="sourcePoint" />
            <mxPoint x="1240" y="330" as="targetPoint" />
          </mxGeometry>
        </mxCell>
        <mxCell id="IL2ZAVDEKWoscdO1TFzV-47" value="Order Execution&lt;br&gt;API" style="ellipse;shape=cloud;whiteSpace=wrap;html=1;fillColor=light-dark(#CCFFFF,var(--ge-dark-color, #121212));" vertex="1" parent="1">
          <mxGeometry x="1210" y="70" width="130" height="80" as="geometry" />
        </mxCell>
        <mxCell id="IL2ZAVDEKWoscdO1TFzV-50" value="" style="endArrow=classic;html=1;rounded=0;entryX=0.07;entryY=0.4;entryDx=0;entryDy=0;entryPerimeter=0;exitX=1;exitY=0.5;exitDx=0;exitDy=0;fillColor=light-dark(#CCFFFF,var(--ge-dark-color, #121212));" edge="1" parent="1" source="IL2ZAVDEKWoscdO1TFzV-2" target="IL2ZAVDEKWoscdO1TFzV-47">
          <mxGeometry width="50" height="50" relative="1" as="geometry">
            <mxPoint x="850" y="440" as="sourcePoint" />
            <mxPoint x="900" y="390" as="targetPoint" />
          </mxGeometry>
        </mxCell>
      </root>
    </mxGraphModel>
  </diagram>
</mxfile>
